<?xml version="1.0" encoding="UTF-8" standalone="no"?>
<!-- Created with Inkscape (http://www.inkscape.org/) -->

<svg
   xmlns:dc="http://purl.org/dc/elements/1.1/"
   xmlns:cc="http://creativecommons.org/ns#"
   xmlns:rdf="http://www.w3.org/1999/02/22-rdf-syntax-ns#"
   xmlns:svg="http://www.w3.org/2000/svg"
   xmlns="http://www.w3.org/2000/svg"
   xmlns:sodipodi="http://sodipodi.sourceforge.net/DTD/sodipodi-0.dtd"
   xmlns:inkscape="http://www.inkscape.org/namespaces/inkscape"
   width="231.12389mm"
   height="47.625111mm"
   viewBox="0 0 231.12389 47.62511"
   version="1.1"
   id="svg1157"
   inkscape:version="0.92.4 (5da689c313, 2019-01-14)"
   sodipodi:docname="Zorax_logo.svg">
  <defs
     id="defs1151" />
  <sodipodi:namedview
     id="base"
     pagecolor="#ffffff"
     bordercolor="#666666"
     borderopacity="1.0"
     inkscape:pageopacity="0.0"
     inkscape:pageshadow="2"
     inkscape:zoom="0.49497475"
     inkscape:cx="336.29064"
     inkscape:cy="96.228051"
     inkscape:document-units="mm"
     inkscape:current-layer="layer1"
     showgrid="false"
     fit-margin-top="0"
     fit-margin-left="0"
     fit-margin-right="0"
     fit-margin-bottom="0"
     inkscape:window-width="1280"
     inkscape:window-height="962"
     inkscape:window-x="1272"
     inkscape:window-y="-8"
     inkscape:window-maximized="1" />
  <metadata
     id="metadata1154">
    <rdf:RDF>
      <cc:Work
         rdf:about="">
        <dc:format>image/svg+xml</dc:format>
        <dc:type
           rdf:resource="http://purl.org/dc/dcmitype/StillImage" />
        <dc:title></dc:title>
      </cc:Work>
    </rdf:RDF>
  </metadata>
  <g
     inkscape:label="Layer 1"
     inkscape:groupmode="layer"
     id="layer1"
     transform="translate(15.457153,-134.91954)">
    <path
       inkscape:connector-curvature="0"
       style="display:inline;opacity:1;fill:#000000;fill-opacity:1;stroke:none;stroke-width:0.1;stroke-linecap:round;stroke-miterlimit:4;stroke-dasharray:none;stroke-opacity:1"
       d="m -12.74569,134.91964 v 6.49986 h 46.300017 l -38.8813494,32.6254 -2.383835,1.99988 -7.7462956,6.49987 h 4.706689 5.4058706 14.3794852 40.3835822 v -6.49987 H 2.4017057 l 39.5981003,-33.2269 1.648479,-1.38288 -0.01291,-0.0156 h 0.031 l 7.746299,-6.49986 z m 159.24145,0 29.00753,25.21604 -26.70638,22.40897 h 10.11256 l 21.56044,-18.0914 20.81166,18.0914 h 9.9079 l -25.67802,-22.32164 30.15528,-25.30337 H 205.5547 l -25.00986,20.9858 -24.14168,-20.9858 z m -91.144833,6.44612 -0.06408,0.0537 h 0.06408 z m -6.018236,1.67897 v 5.99964 0.50022 h 32.000113 v -6.49986 h -0.183451 z m 34.219099,0 v 6.49986 h 32.00012 v -6.49986 z m 33.71526,0 v 5.99964 0.50022 h 32.00011 v -6.49986 z m -67.934359,9.9999 v 14.49991 6.50036 h 6.499862 25.500251 v -6.50036 -14.49991 h -6.500379 v 14.49991 H 55.832553 v -14.49991 z m 34.219099,0 v 6.49989 h 11.972396 l 13.056564,14.50038 h 6.11746 v -4.86275 l -8.67802,-9.63763 h 9.53172 v -6.49989 z m 33.71526,0 v 6.49989 14.50038 h 6.49986 v -14.50038 h 18.99988 v 14.50038 h 6.49986 v -21.00027 h -25.49974 z"
       id="rect4592" />
  </g>
</svg>
