<?xml version="1.0" encoding="UTF-8" standalone="no"?>
<!-- Created with Inkscape (http://www.inkscape.org/) -->

<svg
   xmlns:dc="http://purl.org/dc/elements/1.1/"
   xmlns:cc="http://creativecommons.org/ns#"
   xmlns:rdf="http://www.w3.org/1999/02/22-rdf-syntax-ns#"
   xmlns:svg="http://www.w3.org/2000/svg"
   xmlns="http://www.w3.org/2000/svg"
   xmlns:sodipodi="http://sodipodi.sourceforge.net/DTD/sodipodi-0.dtd"
   xmlns:inkscape="http://www.inkscape.org/namespaces/inkscape"
   width="229.97047mm"
   height="47.62553mm"
   viewBox="0 0 229.97048 47.62553"
   version="1.1"
   id="svg1157"
   inkscape:version="0.92.4 (5da689c313, 2019-01-14)"
   sodipodi:docname="Zorax_logo.svg">
  <defs
     id="defs1151" />
  <sodipodi:namedview
     id="base"
     pagecolor="#ffffff"
     bordercolor="#666666"
     borderopacity="1.0"
     inkscape:pageopacity="0.0"
     inkscape:pageshadow="2"
     inkscape:zoom="0.7"
     inkscape:cx="470.76874"
     inkscape:cy="-120.57474"
     inkscape:document-units="mm"
     inkscape:current-layer="layer1"
     showgrid="false"
     fit-margin-top="0"
     fit-margin-left="0"
     fit-margin-right="0"
     fit-margin-bottom="0"
     inkscape:window-width="1280"
     inkscape:window-height="962"
     inkscape:window-x="1272"
     inkscape:window-y="-8"
     inkscape:window-maximized="1" />
  <metadata
     id="metadata1154">
    <rdf:RDF>
      <cc:Work
         rdf:about="">
        <dc:format>image/svg+xml</dc:format>
        <dc:type
           rdf:resource="http://purl.org/dc/dcmitype/StillImage" />
        <dc:title></dc:title>
      </cc:Work>
    </rdf:RDF>
  </metadata>
  <g
     inkscape:label="Layer 1"
     inkscape:groupmode="layer"
     id="layer1"
     transform="translate(16.051027,-137.88486)">
    <path
       inkscape:connector-curvature="0"
       style="display:inline;opacity:1;fill:#000000;fill-opacity:1;stroke:none;stroke-width:0.1;stroke-linecap:round;stroke-miterlimit:4;stroke-dasharray:none;stroke-opacity:1"
       d="m 147.05013,137.88486 28.37863,23.8125 -28.37863,23.81249 h 10.11205 l 23.3226,-19.56985 23.32261,19.56985 h 10.11205 l -28.37863,-23.81249 28.37863,-23.8125 h -10.11205 l -23.32261,19.56987 -23.3226,-19.56987 z m -160.389695,5.3e-4 v 6.49935 h 46.300016 l -38.8813468,32.62591 -2.3838339,1.99988 -7.7462973,6.49986 h 4.706689 5.4058723 H 8.4410183 48.8246 v -6.49986 H 1.8078316 l 39.5981004,-33.22691 1.648476,-1.38338 -0.01291,-0.0155 h 0.031 l 7.746299,-6.49934 z m 68.096618,6.44612 -0.06408,0.0532 h 0.06408 z m -6.018236,1.67897 v 5.99963 0.50023 H 80.73893 v -6.49986 h -0.183451 z m 33.966917,0 v 6.49986 h 32.000116 v -6.49986 z m 33.967436,0 v 5.99963 0.50023 h 32.00012 v -6.49986 z m -67.934353,9.99939 v 14.5004 6.50038 h 6.49986 25.500253 v -6.50038 -14.5004 h -6.500379 v 14.5004 H 55.238677 v -14.5004 z m 33.966917,0 v 6.50037 H 94.67813 l 13.05657,14.50041 h 6.11746 v -4.86275 l -8.67802,-9.63766 h 9.53171 v -6.50037 z m 33.967436,0 v 6.50037 14.50041 h 6.49987 v -14.50041 h 18.99987 v 14.50041 h 6.49986 v -21.00078 h -25.49973 z"
       id="path1742" />
  </g>
</svg>
